<svg xmlns="http://www.w3.org/2000/svg" xmlns:xlink="http://www.w3.org/1999/xlink" width="117" zoomAndPan="magnify" viewBox="0 0 87.75 60" height="80" preserveAspectRatio="xMidYMid meet" version="1.2"><defs><clipPath id="3a8458a714"><path d="M 65.296875 1.386719 L 76 1.386719 L 76 12 L 65.296875 12 Z M 65.296875 1.386719 "/></clipPath><clipPath id="5361d3441d"><path d="M 65.296875 1.386719 L 77.652344 1.386719 L 77.652344 18 L 65.296875 18 Z M 65.296875 1.386719 "/></clipPath><clipPath id="d5b4d2c6fb"><path d="M 69 16 L 74 16 L 74 18.253906 L 69 18.253906 Z M 69 16 "/></clipPath></defs><g id="b202ad1ad8"><g clip-rule="nonzero" clip-path="url(#3a8458a714)"><path style=" stroke:none;fill-rule:nonzero;fill:#ffbd59;fill-opacity:1;" d="M 75.488281 6.476562 C 75.488281 6.808594 75.457031 7.140625 75.390625 7.46875 C 75.324219 7.796875 75.230469 8.113281 75.101562 8.421875 C 74.972656 8.730469 74.816406 9.027344 74.632812 9.304688 C 74.445312 9.582031 74.234375 9.839844 74 10.074219 C 73.761719 10.3125 73.503906 10.523438 73.226562 10.707031 C 72.949219 10.894531 72.65625 11.050781 72.347656 11.179688 C 72.039062 11.304688 71.71875 11.402344 71.390625 11.46875 C 71.066406 11.53125 70.734375 11.566406 70.398438 11.566406 C 70.066406 11.566406 69.734375 11.53125 69.40625 11.46875 C 69.078125 11.402344 68.761719 11.304688 68.453125 11.179688 C 68.144531 11.050781 67.851562 10.894531 67.570312 10.707031 C 67.292969 10.523438 67.035156 10.3125 66.800781 10.074219 C 66.566406 9.839844 66.351562 9.582031 66.167969 9.304688 C 65.980469 9.027344 65.824219 8.730469 65.699219 8.421875 C 65.570312 8.113281 65.472656 7.796875 65.40625 7.46875 C 65.34375 7.140625 65.308594 6.808594 65.308594 6.476562 C 65.308594 6.140625 65.34375 5.8125 65.40625 5.484375 C 65.472656 5.15625 65.570312 4.835938 65.699219 4.527344 C 65.824219 4.21875 65.980469 3.925781 66.167969 3.648438 C 66.351562 3.371094 66.566406 3.113281 66.800781 2.878906 C 67.035156 2.640625 67.292969 2.429688 67.570312 2.246094 C 67.851562 2.058594 68.144531 1.902344 68.453125 1.773438 C 68.761719 1.644531 69.078125 1.550781 69.40625 1.484375 C 69.734375 1.417969 70.066406 1.386719 70.398438 1.386719 C 70.734375 1.386719 71.066406 1.417969 71.390625 1.484375 C 71.71875 1.550781 72.039062 1.644531 72.347656 1.773438 C 72.65625 1.902344 72.949219 2.058594 73.226562 2.246094 C 73.503906 2.429688 73.761719 2.640625 74 2.878906 C 74.234375 3.113281 74.445312 3.371094 74.632812 3.648438 C 74.816406 3.925781 74.972656 4.21875 75.101562 4.527344 C 75.230469 4.835938 75.324219 5.15625 75.390625 5.484375 C 75.457031 5.8125 75.488281 6.140625 75.488281 6.476562 Z M 75.488281 6.476562 "/></g><g clip-rule="nonzero" clip-path="url(#5361d3441d)"><path style=" stroke:none;fill-rule:nonzero;fill:#ffffff;fill-opacity:1;" d="M 74.398438 17.195312 L 68.671875 17.195312 C 68.574219 17.195312 68.496094 17.117188 68.496094 17.019531 L 68.496094 13.75 C 68.496094 13.1875 68.234375 12.65625 67.78125 12.292969 C 66.152344 11 65.3125 8.984375 65.53125 6.90625 C 65.835938 4.046875 68.234375 1.742188 71.105469 1.542969 C 72.800781 1.425781 74.417969 1.996094 75.652344 3.152344 C 76.875 4.289062 77.574219 5.898438 77.574219 7.566406 C 77.574219 9.421875 76.738281 11.144531 75.28125 12.300781 C 74.832031 12.65625 74.574219 13.183594 74.574219 13.75 L 74.574219 17.019531 C 74.574219 17.117188 74.496094 17.195312 74.398438 17.195312 Z M 68.847656 16.84375 L 74.222656 16.84375 L 74.222656 13.75 C 74.222656 13.078125 74.527344 12.449219 75.0625 12.023438 C 76.433594 10.9375 77.222656 9.3125 77.222656 7.566406 C 77.222656 5.996094 76.5625 4.480469 75.414062 3.410156 C 74.25 2.320312 72.730469 1.785156 71.128906 1.894531 C 68.425781 2.082031 66.167969 4.253906 65.882812 6.941406 C 65.675781 8.902344 66.464844 10.800781 68 12.019531 C 68.539062 12.445312 68.847656 13.078125 68.847656 13.75 Z M 68.847656 16.84375 "/></g><g clip-rule="nonzero" clip-path="url(#d5b4d2c6fb)"><path style=" stroke:none;fill-rule:nonzero;fill:#ffffff;fill-opacity:1;" d="M 71.492188 18.207031 C 70.242188 18.207031 69.261719 17.683594 69.261719 17.019531 C 69.261719 16.921875 69.339844 16.84375 69.4375 16.84375 C 69.535156 16.84375 69.613281 16.921875 69.613281 17.019531 C 69.613281 17.414062 70.386719 17.851562 71.492188 17.851562 C 72.597656 17.851562 73.371094 17.414062 73.371094 17.019531 C 73.371094 16.921875 73.449219 16.84375 73.546875 16.84375 C 73.644531 16.84375 73.722656 16.921875 73.722656 17.019531 C 73.722656 17.683594 72.742188 18.207031 71.492188 18.207031 Z M 71.492188 18.207031 "/></g><path style=" stroke:none;fill-rule:nonzero;fill:#ffffff;fill-opacity:1;" d="M 67.992188 13.925781 C 67.898438 13.925781 67.820312 13.855469 67.816406 13.761719 C 67.808594 13.664062 67.882812 13.582031 67.980469 13.574219 L 75.066406 13.082031 C 75.167969 13.078125 75.25 13.148438 75.253906 13.246094 C 75.261719 13.34375 75.1875 13.425781 75.09375 13.433594 L 68.003906 13.925781 C 68 13.925781 67.996094 13.925781 67.992188 13.925781 Z M 67.992188 13.925781 "/><path style=" stroke:none;fill-rule:nonzero;fill:#ffffff;fill-opacity:1;" d="M 67.992188 15.050781 C 67.898438 15.050781 67.820312 14.980469 67.816406 14.886719 C 67.808594 14.789062 67.882812 14.707031 67.980469 14.699219 L 75.066406 14.207031 C 75.167969 14.203125 75.25 14.273438 75.253906 14.371094 C 75.261719 14.46875 75.1875 14.554688 75.09375 14.558594 L 68.003906 15.050781 C 68 15.050781 67.996094 15.050781 67.992188 15.050781 Z M 67.992188 15.050781 "/><path style=" stroke:none;fill-rule:nonzero;fill:#ffffff;fill-opacity:1;" d="M 67.992188 16.175781 C 67.898438 16.175781 67.820312 16.105469 67.816406 16.015625 C 67.808594 15.917969 67.882812 15.832031 67.980469 15.824219 L 75.066406 15.335938 C 75.167969 15.328125 75.25 15.402344 75.253906 15.5 C 75.261719 15.59375 75.1875 15.679688 75.09375 15.6875 L 68.003906 16.175781 C 68 16.175781 67.996094 16.175781 67.992188 16.175781 Z M 67.992188 16.175781 "/><g style="fill:#ffde59;fill-opacity:1;"><g transform="translate(61.586322, 23.162149)"><path style="stroke:none" d="M -15.359375 -3.03125 C -15.359375 -3.75 -15.144531 -4.285156 -14.71875 -4.640625 C -14.300781 -5.003906 -13.75 -5.1875 -13.0625 -5.1875 L -2.078125 -5.1875 C -1.410156 -5.1875 -0.859375 -5.003906 -0.421875 -4.640625 C 0.00390625 -4.285156 0.21875 -3.75 0.21875 -3.03125 C 0.21875 -2.320312 0.00390625 -1.78125 -0.421875 -1.40625 C -0.859375 -1.039062 -1.410156 -0.859375 -2.078125 -0.859375 L -13.0625 -0.859375 C -13.75 -0.859375 -14.300781 -1.039062 -14.71875 -1.40625 C -15.144531 -1.78125 -15.359375 -2.320312 -15.359375 -3.03125 Z M -15.359375 -3.03125 "/></g></g><g style="fill:#5ce1e6;fill-opacity:1;"><g transform="translate(5.647548, 40.871713)"><path style="stroke:none" d="M 3.03125 -15.359375 C 3.75 -15.359375 4.285156 -15.144531 4.640625 -14.71875 C 5.003906 -14.300781 5.1875 -13.75 5.1875 -13.0625 L 5.1875 -2.078125 C 5.1875 -1.410156 5.003906 -0.859375 4.640625 -0.421875 C 4.285156 0.00390625 3.75 0.21875 3.03125 0.21875 C 2.320312 0.21875 1.78125 0.00390625 1.40625 -0.421875 C 1.039062 -0.859375 0.859375 -1.410156 0.859375 -2.078125 L 0.859375 -13.0625 C 0.859375 -13.75 1.039062 -14.300781 1.40625 -14.71875 C 1.78125 -15.144531 2.320312 -15.359375 3.03125 -15.359375 Z M 3.03125 -15.359375 "/></g></g><g style="fill:#ff8bd2;fill-opacity:1;"><g transform="translate(71.9537, 36.329293)"><path style="stroke:none" d="M -3.875 -15.171875 C -3.226562 -15.472656 -2.648438 -15.507812 -2.140625 -15.28125 C -1.628906 -15.0625 -1.226562 -14.644531 -0.9375 -14.03125 L 3.796875 -4.109375 C 4.078125 -3.503906 4.144531 -2.925781 4 -2.375 C 3.863281 -1.832031 3.472656 -1.410156 2.828125 -1.109375 C 2.191406 -0.796875 1.613281 -0.753906 1.09375 -0.984375 C 0.570312 -1.222656 0.171875 -1.644531 -0.109375 -2.25 L -4.84375 -12.171875 C -5.132812 -12.785156 -5.203125 -13.359375 -5.046875 -13.890625 C -4.898438 -14.429688 -4.507812 -14.859375 -3.875 -15.171875 Z M -3.875 -15.171875 "/></g></g><g style="fill:#ffffff;fill-opacity:1;"><g transform="translate(7.021917, 47.805868)"><path style="stroke:none" d="M 5.980469 -28.269531 L 19.21875 -28.269531 C 20.40625 -28.269531 21.414062 -27.855469 22.242188 -27.027344 C 23.070312 -26.199219 23.484375 -25.191406 23.484375 -24 C 23.484375 -22.835938 23.070312 -21.847656 22.242188 -21.03125 C 21.414062 -20.21875 20.40625 -19.8125 19.21875 -19.8125 L 10.367188 -19.8125 L 10.367188 -20.175781 L 10.726562 -20.175781 L 10.726562 -15.550781 L 10.367188 -15.550781 L 10.367188 -15.910156 L 15.230469 -15.910156 C 16.417969 -15.910156 17.429688 -15.496094 18.257812 -14.667969 C 19.085938 -13.839844 19.5 -12.832031 19.5 -11.640625 C 19.5 -10.476562 19.085938 -9.488281 18.253906 -8.671875 C 17.425781 -7.859375 16.417969 -7.453125 15.230469 -7.453125 L 10.367188 -7.453125 L 10.367188 -7.816406 L 10.726562 -7.816406 L 10.726562 -4.226562 C 10.726562 -2.757812 10.339844 -1.5625 9.566406 -0.644531 C 8.777344 0.292969 7.582031 0.761719 5.980469 0.761719 C 4.40625 0.761719 3.21875 0.292969 2.417969 -0.640625 C 1.628906 -1.558594 1.234375 -2.753906 1.234375 -4.226562 L 1.234375 -23.285156 C 1.234375 -24.78125 1.628906 -25.984375 2.417969 -26.890625 C 3.222656 -27.808594 4.410156 -28.269531 5.980469 -28.269531 Z M 5.980469 -27.546875 C 4.628906 -27.546875 3.621094 -27.171875 2.964844 -26.414062 C 2.292969 -25.644531 1.957031 -24.601562 1.957031 -23.285156 L 1.957031 -4.226562 C 1.957031 -2.933594 2.292969 -1.894531 2.964844 -1.113281 C 3.625 -0.347656 4.628906 0.0390625 5.980469 0.0390625 C 7.355469 0.0390625 8.367188 -0.34375 9.011719 -1.109375 C 9.675781 -1.894531 10.003906 -2.933594 10.003906 -4.226562 L 10.003906 -8.175781 L 15.230469 -8.175781 C 16.222656 -8.175781 17.0625 -8.511719 17.746094 -9.1875 C 18.433594 -9.863281 18.777344 -10.679688 18.777344 -11.640625 C 18.777344 -12.632812 18.433594 -13.46875 17.746094 -14.15625 C 17.058594 -14.84375 16.21875 -15.1875 15.230469 -15.1875 L 10.003906 -15.1875 L 10.003906 -20.535156 L 19.21875 -20.535156 C 20.207031 -20.535156 21.046875 -20.875 21.734375 -21.546875 C 22.421875 -22.222656 22.761719 -23.039062 22.761719 -24 C 22.761719 -24.992188 22.417969 -25.832031 21.734375 -26.515625 C 21.046875 -27.203125 20.207031 -27.546875 19.21875 -27.546875 Z M 5.980469 -27.546875 "/></g></g><g style="fill:#ffffff;fill-opacity:1;"><g transform="translate(30.54464, 47.805868)"><path style="stroke:none" d="M 5.582031 -28.667969 C 7.019531 -28.667969 8.109375 -28.242188 8.84375 -27.386719 C 9.570312 -26.546875 9.929688 -25.445312 9.929688 -24.082031 L 9.929688 -3.828125 C 9.929688 -2.519531 9.570312 -1.429688 8.847656 -0.566406 C 8.113281 0.316406 7.023438 0.761719 5.582031 0.761719 C 4.167969 0.761719 3.085938 0.320312 2.335938 -0.5625 C 1.601562 -1.429688 1.234375 -2.515625 1.234375 -3.828125 L 1.234375 -24.082031 C 1.234375 -25.449219 1.601562 -26.550781 2.339844 -27.390625 C 3.089844 -28.242188 4.171875 -28.667969 5.582031 -28.667969 Z M 5.582031 -27.945312 C 4.386719 -27.945312 3.488281 -27.601562 2.882812 -26.914062 C 2.265625 -26.210938 1.957031 -25.265625 1.957031 -24.082031 L 1.957031 -3.828125 C 1.957031 -2.695312 2.265625 -1.761719 2.886719 -1.03125 C 3.492188 -0.320312 4.390625 0.0390625 5.582031 0.0390625 C 6.796875 0.0390625 7.703125 -0.316406 8.292969 -1.027344 C 8.902344 -1.757812 9.207031 -2.691406 9.207031 -3.828125 L 9.207031 -24.082031 C 9.207031 -25.269531 8.90625 -26.210938 8.296875 -26.914062 C 7.707031 -27.601562 6.800781 -27.945312 5.582031 -27.945312 Z M 5.582031 -27.945312 "/></g></g><g style="fill:#ffffff;fill-opacity:1;"><g transform="translate(41.707968, 47.805868)"><path style="stroke:none" d="M 4.304688 -28.269531 L 20.015625 -28.269531 C 21.203125 -28.269531 22.214844 -27.855469 23.042969 -27.027344 C 23.871094 -26.199219 24.285156 -25.191406 24.285156 -24 C 24.285156 -22.839844 23.871094 -21.839844 23.042969 -20.996094 C 22.214844 -20.15625 21.207031 -19.734375 20.015625 -19.734375 L 16.585938 -19.734375 L 16.585938 -20.09375 L 16.945312 -20.09375 L 16.945312 -4.226562 C 16.945312 -2.753906 16.546875 -1.558594 15.742188 -0.640625 C 14.925781 0.292969 13.71875 0.761719 12.121094 0.761719 C 10.546875 0.761719 9.371094 0.292969 8.59375 -0.648438 C 7.832031 -1.5625 7.453125 -2.757812 7.453125 -4.226562 L 7.453125 -20.09375 L 7.816406 -20.09375 L 7.816406 -19.734375 L 4.304688 -19.734375 C 3.144531 -19.734375 2.140625 -20.152344 1.300781 -20.996094 C 0.457031 -21.835938 0.0390625 -22.839844 0.0390625 -24 C 0.0390625 -25.191406 0.457031 -26.203125 1.300781 -27.03125 C 2.144531 -27.855469 3.144531 -28.269531 4.304688 -28.269531 Z M 4.304688 -27.546875 C 3.339844 -27.546875 2.507812 -27.203125 1.808594 -26.515625 C 1.109375 -25.828125 0.761719 -24.992188 0.761719 -24 C 0.761719 -23.039062 1.109375 -22.207031 1.808594 -21.507812 C 2.511719 -20.804688 3.34375 -20.457031 4.304688 -20.457031 L 8.175781 -20.457031 L 8.175781 -4.226562 C 8.175781 -2.929688 8.5 -1.890625 9.148438 -1.109375 C 9.78125 -0.34375 10.773438 0.0390625 12.121094 0.0390625 C 13.5 0.0390625 14.523438 -0.347656 15.199219 -1.113281 C 15.882812 -1.898438 16.222656 -2.933594 16.222656 -4.226562 L 16.222656 -20.457031 L 20.015625 -20.457031 C 21.003906 -20.457031 21.839844 -20.804688 22.527344 -21.503906 C 23.214844 -22.203125 23.5625 -23.035156 23.5625 -24 C 23.5625 -24.992188 23.21875 -25.832031 22.53125 -26.515625 C 21.84375 -27.203125 21.003906 -27.546875 20.015625 -27.546875 Z M 4.304688 -27.546875 "/></g></g><g style="fill:#ffffff;fill-opacity:1;"><g transform="translate(66.028069, 47.805868)"><path style="stroke:none" d="M 5.582031 -28.667969 C 7.019531 -28.667969 8.109375 -28.242188 8.84375 -27.386719 C 9.570312 -26.546875 9.929688 -25.445312 9.929688 -24.082031 L 9.929688 -3.828125 C 9.929688 -2.519531 9.570312 -1.429688 8.847656 -0.566406 C 8.113281 0.316406 7.023438 0.761719 5.582031 0.761719 C 4.167969 0.761719 3.085938 0.320312 2.335938 -0.5625 C 1.601562 -1.429688 1.234375 -2.515625 1.234375 -3.828125 L 1.234375 -24.082031 C 1.234375 -25.449219 1.601562 -26.550781 2.339844 -27.390625 C 3.089844 -28.242188 4.171875 -28.667969 5.582031 -28.667969 Z M 5.582031 -27.945312 C 4.386719 -27.945312 3.488281 -27.601562 2.882812 -26.914062 C 2.265625 -26.210938 1.957031 -25.265625 1.957031 -24.082031 L 1.957031 -3.828125 C 1.957031 -2.695312 2.265625 -1.761719 2.886719 -1.03125 C 3.492188 -0.320312 4.390625 0.0390625 5.582031 0.0390625 C 6.796875 0.0390625 7.703125 -0.316406 8.292969 -1.027344 C 8.902344 -1.757812 9.207031 -2.691406 9.207031 -3.828125 L 9.207031 -24.082031 C 9.207031 -25.269531 8.90625 -26.210938 8.296875 -26.914062 C 7.707031 -27.601562 6.800781 -27.945312 5.582031 -27.945312 Z M 5.582031 -27.945312 "/></g></g></g></svg>